<svg width="52" height="52" viewBox="0 0 52 52" fill="none" xmlns="http://www.w3.org/2000/svg">
<path d="M48.768 25.1002C45.2707 25.1002 42.0244 23.3632 40.0841 20.4524L39.388 19.4083L38.6919 20.4524C36.7517 23.3632 33.5054 25.1002 30.0081 25.1002H26.838V38.517C26.838 41.76 28.2979 44.808 30.7377 46.8536H13.4512V43.5069H24.3279V28.4468H6.75783V35.1402H1.7378V1.67334H38.5514V16.7334H40.2247V0H0.0644531V36.3233L12.2682 48.527H33.3096L39.388 52L46.4579 47.9605C49.8381 46.0295 51.9381 42.4101 51.9381 38.517V25.1002H48.768ZM11.7779 45.6706L2.92085 36.8136H11.7779V45.6706ZM8.43117 35.1402V30.1202H22.6546V41.8336H13.4512V35.1402H8.43117ZM50.2648 38.517C50.2648 41.8118 48.4877 44.8732 45.6279 46.5081L39.388 50.074L33.1481 46.5081C30.2884 44.8732 28.5113 41.8118 28.5113 38.517V26.7735H30.0081C33.6727 26.7735 37.0997 25.1294 39.388 22.3241C41.6763 25.1294 45.1033 26.7735 48.768 26.7735H50.2648V38.517Z" fill="#467BC9"/>
<path d="M46.9158 33.4669V38.517C46.9158 40.6137 45.7846 42.5623 43.9648 43.6023L44.7948 45.0548C47.135 43.7178 48.5891 41.2128 48.5891 38.517V33.4669H46.9158Z" fill="#467BC9"/>
<path d="M5.08398 3.34668V8.36671H35.2042V3.34668H5.08398ZM33.5308 6.69337H6.75733V5.02002H33.5308V6.69337Z" fill="#467BC9"/>
<path d="M46.3257 28.692L35.2038 39.8139L32.4487 37.0587L31.2656 38.2418L35.2038 42.18L47.5088 29.8751L46.3257 28.692Z" fill="#467BC9"/>
<path d="M20.9802 31.7935H10.1035V33.4669H20.9802V31.7935Z" fill="#467BC9"/>
<path d="M20.9798 35.1402H15.123V36.8135H20.9798V35.1402Z" fill="#467BC9"/>
<path d="M20.9798 38.4869H15.123V40.1602H20.9798V38.4869Z" fill="#467BC9"/>
<path d="M31.8575 11.7134H5.08398V13.3868H31.8575V11.7134Z" fill="#467BC9"/>
<path d="M31.8575 15.0601H5.08398V16.7335H31.8575V15.0601Z" fill="#467BC9"/>
<path d="M31.8575 18.4068H5.08398V20.0801H31.8575V18.4068Z" fill="#467BC9"/>
<path d="M20.9808 21.7535H5.08398V23.4268H20.9808V21.7535Z" fill="#467BC9"/>
<path d="M20.9808 25.1002H5.08398V26.7735H20.9808V25.1002Z" fill="#467BC9"/>
<path d="M35.2046 11.7134H33.5312V13.3868H35.2046V11.7134Z" fill="#467BC9"/>
<path d="M35.2046 15.0601H33.5312V16.7335H35.2046V15.0601Z" fill="#467BC9"/>
<path d="M35.2046 18.4068H33.5312V20.0801H35.2046V18.4068Z" fill="#467BC9"/>
<path d="M24.3276 21.7535H22.6543V23.4268H24.3276V21.7535Z" fill="#467BC9"/>
<path d="M24.3276 25.1002H22.6543V26.7735H24.3276V25.1002Z" fill="#467BC9"/>
</svg>
