<svg width="63" height="63" viewBox="0 0 63 63" fill="none" xmlns="http://www.w3.org/2000/svg">
<g clip-path="url(#clip0)">
<path d="M57.2888 51.4807C58.2955 50.5519 58.938 49.2332 58.938 47.7586V45.7264C58.938 42.9252 56.6587 40.6459 53.8574 40.6459C51.4045 40.6459 49.352 42.3948 48.8791 44.7103H45.5416C45.1208 43.5305 44.003 42.6781 42.6803 42.6781C41.3571 42.6781 40.2393 43.5305 39.8185 44.7103H36.481C36.0756 42.7227 34.5063 41.1539 32.5193 40.7486V38.4693C34.2677 38.0153 35.5676 36.4381 35.5676 34.5493H36.5837C37.1453 34.5493 37.5998 34.0953 37.5998 33.5331V30.4848H39.632V28.4526H37.5998V28.4417C37.5998 26.4978 38.5211 24.5872 40.1276 23.2034C43.041 20.6904 44.7125 17.0487 44.7125 13.2111C44.7125 9.58175 43.2702 6.19805 40.6521 3.68309C38.0354 1.16813 34.5768 -0.144671 30.9584 0.0131033C24.0997 0.289456 18.4183 6.10229 18.2958 12.9704C18.2253 16.8577 19.8646 20.5604 22.7928 23.1295C24.4043 24.5415 25.341 26.4735 25.3961 28.4526H23.3743V30.4848H25.4065V33.5331C25.4065 34.0953 25.8605 34.5493 26.4226 34.5493H27.4387C27.4387 36.4381 28.7381 38.0153 30.487 38.4693V40.7486C28.4995 41.1539 26.9307 42.7227 26.5248 44.7103H23.1873C22.7665 43.5305 21.6487 42.6781 20.326 42.6781C19.0028 42.6781 17.885 43.5305 17.4642 44.7103H14.1267C13.6538 42.3948 11.6023 40.6459 9.14885 40.6459C6.34712 40.6459 4.06832 42.9252 4.06832 45.7264V47.7586C4.06832 49.2332 4.71034 50.5519 5.71701 51.4807C2.37101 52.8411 0.00390625 56.1231 0.00390625 59.9519V61.9841C0.00390625 62.5462 0.457879 63.0002 1.02001 63.0002H17.2777C17.8393 63.0002 18.2938 62.5462 18.2938 61.9841V59.9519C18.2938 56.1231 15.9262 52.8411 12.5802 51.4807C13.5869 50.5519 14.2294 49.2332 14.2294 47.7586V46.7425H17.4642C17.885 47.9223 19.0028 48.7747 20.326 48.7747C21.6487 48.7747 22.7665 47.9223 23.1873 46.7425H26.4226V47.7586C26.4226 49.2332 27.0646 50.5519 28.0713 51.4807C24.7253 52.8411 22.3582 56.1231 22.3582 59.9519V61.9841C22.3582 62.5462 22.8122 63.0002 23.3743 63.0002H39.632C40.1936 63.0002 40.6481 62.5462 40.6481 61.9841V59.9519C40.6481 56.1231 38.2805 52.8411 34.9345 51.4807C35.9412 50.5519 36.5837 49.2332 36.5837 47.7586V46.7425H39.8185C40.2393 47.9223 41.3571 48.7747 42.6803 48.7747C44.003 48.7747 45.1208 47.9223 45.5416 46.7425H48.7769V47.7586C48.7769 49.2332 49.4189 50.5519 50.4256 51.4807C47.0796 52.8411 44.7125 56.1231 44.7125 59.9519V61.9841C44.7125 62.5462 45.1665 63.0002 45.7286 63.0002H61.9863C62.5479 63.0002 63.0024 62.5462 63.0024 61.9841V59.9519C63.0024 56.1231 60.6348 52.8411 57.2888 51.4807ZM16.2616 59.9519V60.968H14.2294V58.9358H12.1972V60.968H6.10053V58.9358H4.06832V60.968H2.03612V59.9519C2.03612 56.0308 5.22732 52.8391 9.14885 52.8391C13.0699 52.8391 16.2616 56.0308 16.2616 59.9519ZM6.10053 47.7586V45.7264C6.10053 44.046 7.46791 42.6781 9.14885 42.6781C10.8293 42.6781 12.1972 44.046 12.1972 45.7264V47.7586C12.1972 49.4391 10.8293 50.8069 9.14885 50.8069C7.46791 50.8069 6.10053 49.4391 6.10053 47.7586ZM20.326 46.7425C19.7649 46.7425 19.3099 46.2875 19.3099 45.7264C19.3099 45.1658 19.7649 44.7103 20.326 44.7103C20.8866 44.7103 21.3421 45.1658 21.3421 45.7264C21.3421 46.2875 20.8866 46.7425 20.326 46.7425ZM24.1319 21.6009C21.6547 19.4277 20.2679 16.2951 20.328 13.0056C20.4327 7.1948 25.2378 2.27701 31.0397 2.04283C34.1397 1.93021 37.0307 3.02272 39.2435 5.14919C41.4598 7.27617 42.6803 10.1404 42.6803 13.2111C42.6803 16.4573 41.2658 19.5384 38.8004 21.6629C36.7459 23.4351 35.5676 25.9054 35.5676 28.4417V28.4526H27.4283C27.3732 25.889 26.1845 23.3994 24.1319 21.6009ZM35.5676 30.4848V32.517H27.4387V30.4848H35.5676ZM29.4709 34.5493H33.5354C33.5354 35.67 32.6234 36.5815 31.5031 36.5815C30.3824 36.5815 29.4709 35.67 29.4709 34.5493ZM38.6159 59.9519V60.968H36.5837V58.9358H34.5515V60.968H28.4548V58.9358H26.4226V60.968H24.3904V59.9519C24.3904 56.0308 27.5816 52.8391 31.5031 52.8391C35.4242 52.8391 38.6159 56.0308 38.6159 59.9519ZM28.4548 47.7586V45.7264C28.4548 44.046 29.8222 42.6781 31.5031 42.6781C33.1836 42.6781 34.5515 44.046 34.5515 45.7264V47.7586C34.5515 49.4391 33.1836 50.8069 31.5031 50.8069C29.8222 50.8069 28.4548 49.4391 28.4548 47.7586ZM42.6803 46.7425C42.1192 46.7425 41.6642 46.2875 41.6642 45.7264C41.6642 45.1658 42.1192 44.7103 42.6803 44.7103C43.2409 44.7103 43.6964 45.1658 43.6964 45.7264C43.6964 46.2875 43.2409 46.7425 42.6803 46.7425ZM50.8091 47.7586V45.7264C50.8091 44.046 52.1765 42.6781 53.8574 42.6781C55.5379 42.6781 56.9058 44.046 56.9058 45.7264V47.7586C56.9058 49.4391 55.5379 50.8069 53.8574 50.8069C52.1765 50.8069 50.8091 49.4391 50.8091 47.7586ZM60.9702 60.968H58.938V58.9358H56.9058V60.968H50.8091V58.9358H48.7769V60.968H46.7447V59.9519C46.7447 56.0308 49.9359 52.8391 53.8574 52.8391C57.7785 52.8391 60.9702 56.0308 60.9702 59.9519V60.968Z" fill="#467BC9"/>
<path d="M29.4688 24.388H33.5333V26.4203H29.4688V24.388Z" fill="#467BC9"/>
<path d="M30.4853 18.1888V20.3237H32.5175V18.1888C33.1645 18.0568 33.7663 17.7988 34.2987 17.445L35.8635 19.0099L37.2999 17.573L35.7355 16.0082C36.0888 15.4758 36.3468 14.8745 36.4792 14.227H38.6141V12.1948H36.4792C36.3468 11.5474 36.0888 10.946 35.7355 10.4137L37.2999 8.84883L35.8635 7.412L34.2987 8.97684C33.7663 8.62309 33.1645 8.36509 32.5175 8.23312V6.09821H30.4853V8.23312C29.8378 8.36509 29.2365 8.62309 28.7036 8.97684L27.1388 7.412L25.7025 8.84883L27.2673 10.4137C26.9136 10.946 26.6556 11.5474 26.5231 12.1948H24.3887V14.227H26.5231C26.6556 14.8745 26.9136 15.4758 27.2673 16.0082L25.7025 17.573L27.1388 19.0099L28.7036 17.445C29.2365 17.7988 29.8378 18.0568 30.4853 18.1888ZM31.5014 10.1626C33.1818 10.1626 34.5497 11.5305 34.5497 13.2109C34.5497 14.8914 33.1818 16.2592 31.5014 16.2592C29.8205 16.2592 28.4531 14.8914 28.4531 13.2109C28.4531 11.5305 29.8205 10.1626 31.5014 10.1626Z" fill="#467BC9"/>
</g>
<defs>
<clipPath id="clip0">
<rect width="63" height="63" fill="white"/>
</clipPath>
</defs>
</svg>
