<svg width="39" height="39" viewBox="0 0 39 39" fill="none" xmlns="http://www.w3.org/2000/svg">
<path d="M35.7494 27.3H17.5494C17.1906 27.3 16.8994 27.5913 16.8994 27.95C16.8994 28.3088 17.1906 28.6 17.5494 28.6H35.7494C36.1081 28.6 36.3993 28.3088 36.3993 27.95C36.3993 27.5913 36.1082 27.3 35.7494 27.3Z" fill="#EE5F22"/>
<path d="M33.1503 14.3H30.5504C30.1916 14.3 29.9004 14.5913 29.9004 14.95C29.9004 15.3088 30.1916 15.6 30.5504 15.6H33.1503C33.5091 15.6 33.8003 15.3088 33.8003 14.95C33.8003 14.5913 33.5091 14.3 33.1503 14.3Z" fill="#EE5F22"/>
<path d="M33.1503 22.0999H30.5504C30.1916 22.0999 29.9004 22.3911 29.9004 22.7498C29.9004 23.1086 30.1916 23.3998 30.5504 23.3998H33.1503C33.5091 23.3998 33.8003 23.1086 33.8003 22.7498C33.8003 22.3911 33.5091 22.0999 33.1503 22.0999Z" fill="#EE5F22"/>
<path d="M33.1503 18.2H30.5504C30.1916 18.2 29.9004 18.4912 29.9004 18.8499C29.9004 19.2087 30.1916 19.4999 30.5504 19.4999H33.1503C33.5091 19.4999 33.8003 19.2087 33.8003 18.8499C33.8003 18.4912 33.5091 18.2 33.1503 18.2Z" fill="#EE5F22"/>
<path d="M16.25 29.9H15.6V1.95C15.6 0.87491 14.7251 0 13.65 0H5.85C4.77491 0 3.9 0.87491 3.9 1.95V27.95C3.9 28.3087 4.19121 28.5999 4.54997 28.5999C4.90874 28.5999 5.19995 28.3087 5.19995 27.95V1.95C5.19995 1.59184 5.49176 1.30003 5.84992 1.30003H13.6499C14.0081 1.30003 14.2999 1.59184 14.2999 1.95V33.15C14.2999 33.5082 14.0081 33.8 13.6499 33.8H5.85C5.49184 33.8 5.20002 33.5082 5.20002 33.15V30.55C5.20002 30.1913 4.90882 29.9001 4.55005 29.9001H3.25003C2.08391 29.9001 1.30003 29.1162 1.30003 27.9501V4.55005C1.30003 3.85582 1.66535 3.22862 2.27701 2.87237C2.58703 2.69169 2.69237 2.29384 2.51169 1.98313C2.33033 1.67312 1.93256 1.56777 1.62315 1.74845C0.62141 2.33154 0 3.40534 0 4.54997V27.95C0 29.833 1.36698 31.2 3.25003 31.2H3.9V33.15C3.9 34.2251 4.77491 35.1 5.85 35.1H13.65C14.7251 35.1 15.6 34.2251 15.6 33.15V31.2H16.25C16.6087 31.2 16.8999 30.9088 16.8999 30.55C16.8999 30.1913 16.6088 29.9 16.25 29.9Z" fill="#EE5F22"/>
<path d="M34.4502 29.8999C34.0914 29.8999 33.8002 30.1904 33.8002 30.5499V37.6999H19.5001V30.5499C19.5001 30.1904 19.2089 29.8999 18.8502 29.8999C18.4914 29.8999 18.2002 30.1904 18.2002 30.5499V38.3499C18.2002 38.7086 18.4914 38.9999 18.8502 38.9999H34.4502C34.8089 38.9999 35.1002 38.7086 35.1002 38.3499V30.5499C35.1002 30.1905 34.8089 29.8999 34.4502 29.8999Z" fill="#EE5F22"/>
<path d="M22.7496 35.1H29.2496C29.6083 35.1 29.8995 34.8088 29.8995 34.45C29.8995 34.0913 29.6083 33.8 29.2496 33.8H22.7496C22.3908 33.8 22.0996 34.0913 22.0996 34.45C22.0995 34.8088 22.3907 35.1 22.7496 35.1Z" fill="#EE5F22"/>
<path d="M22.7496 32.4999H30.5496C30.9084 32.4999 31.1996 32.2087 31.1996 31.8499C31.1996 31.4912 30.9084 31.2 30.5496 31.2H22.7496C22.3908 31.2 22.0996 31.4912 22.0996 31.8499C22.0996 32.2087 22.3907 32.4999 22.7496 32.4999Z" fill="#EE5F22"/>
<path d="M20.15 19.4999H22.7499C23.1087 19.4999 23.3999 19.2087 23.3999 18.8499C23.3999 18.4912 23.1087 18.2 22.7499 18.2H20.15C19.7912 18.2 19.5 18.4912 19.5 18.8499C19.5 19.2087 19.7912 19.4999 20.15 19.4999Z" fill="#EE5F22"/>
<path d="M20.15 15.6H22.7499C23.1087 15.6 23.3999 15.3088 23.3999 14.95C23.3999 14.5913 23.1087 14.3 22.7499 14.3H20.15C19.7912 14.3 19.5 14.5913 19.5 14.95C19.5 15.3088 19.7912 15.6 20.15 15.6Z" fill="#EE5F22"/>
<path d="M20.15 23.4H22.7499C23.1087 23.4 23.3999 23.1088 23.3999 22.7501C23.3999 22.3913 23.1087 22.1001 22.7499 22.1001H20.15C19.7912 22.1001 19.5 22.3913 19.5 22.7501C19.5 23.1088 19.7912 23.4 20.15 23.4Z" fill="#EE5F22"/>
<path d="M35.7494 1.30005H17.5494C17.1906 1.30005 16.8994 1.59125 16.8994 1.95002C16.8994 2.30879 17.1906 2.6 17.5494 2.6H35.7494C36.8245 2.6 37.6994 3.47491 37.6994 4.55V28.6C37.6994 29.2889 37.3302 29.9337 36.7348 30.2828C36.4254 30.4648 36.3214 30.8627 36.5034 31.1727C36.6243 31.3787 36.8414 31.4937 37.0643 31.4937C37.1761 31.4937 37.2899 31.4645 37.3932 31.404C38.3838 30.8224 38.9994 29.7486 38.9994 28.6V4.55C38.9994 2.75798 37.5415 1.30005 35.7494 1.30005Z" fill="#EE5F22"/>
<path d="M27.9501 18.2H25.3502C24.9914 18.2 24.7002 18.4912 24.7002 18.8499C24.7002 19.2087 24.9914 19.5 25.3502 19.5H27.9501C28.3089 19.5 28.6001 19.2088 28.6001 18.85C28.6001 18.4912 28.309 18.2 27.9501 18.2Z" fill="#EE5F22"/>
<path d="M33.8 7.14997C33.8 6.7912 33.5088 6.5 33.15 6.5H20.15C19.7912 6.5 19.5 6.7912 19.5 7.14997V11.05C19.5 11.4087 19.7912 11.6999 20.15 11.6999H33.15C33.5088 11.6999 33.8 11.4087 33.8 11.05V7.14997ZM32.5 10.3999H20.8V7.79995H32.5V10.3999Z" fill="#EE5F22"/>
<path d="M27.9501 22.0999H25.3502C24.9914 22.0999 24.7002 22.3911 24.7002 22.7498C24.7002 23.1086 24.9914 23.3998 25.3502 23.3998H27.9501C28.3089 23.3998 28.6001 23.1086 28.6001 22.7498C28.6001 22.3911 28.309 22.0999 27.9501 22.0999Z" fill="#EE5F22"/>
<path d="M27.9501 14.3H25.3502C24.9914 14.3 24.7002 14.5913 24.7002 14.95C24.7002 15.3088 24.9914 15.6 25.3502 15.6H27.9501C28.3089 15.6 28.6001 15.3088 28.6001 14.95C28.6001 14.5913 28.309 14.3 27.9501 14.3Z" fill="#EE5F22"/>
</svg>
