<svg width="38" height="38" viewBox="0 0 38 38" fill="none" xmlns="http://www.w3.org/2000/svg">
<path d="M12.467 26.0119C14.032 28.2184 15.5945 30.1919 16.63 31.4629C16.7807 31.6479 16.9219 31.8195 17.0587 31.9848H13.9339C13.5841 31.9848 13.3006 32.2683 13.3006 32.6181C13.3006 32.9679 13.5841 33.2514 13.9339 33.2514H24.0672C24.417 33.2514 24.7005 32.9679 24.7005 32.6181C24.7005 32.2683 24.417 31.9848 24.0672 31.9848H20.9423C21.0791 31.8195 21.2203 31.6478 21.3717 31.4629C22.4066 30.1962 23.9685 28.2184 25.534 26.0119C27.0874 23.8665 28.4855 21.6131 29.7178 19.2688C31.0111 16.729 31.6673 14.6207 31.6673 13.0019C31.6716 9.63824 30.3368 6.41119 27.9578 4.03321C27.7989 3.86845 27.5635 3.80225 27.342 3.86006C27.1205 3.91788 26.9475 4.09066 26.8893 4.31206C26.8312 4.53345 26.8971 4.76895 27.0616 4.92807C29.203 7.06885 30.4044 9.97386 30.4006 13.0018C30.4006 14.4193 29.7913 16.3344 28.5893 18.6936C27.3848 20.9837 26.0183 23.1848 24.5005 25.2803C22.9564 27.4584 21.4129 29.4097 20.3901 30.6637C20.0501 31.0804 19.7441 31.449 19.4832 31.7606C19.3614 31.8997 19.1855 31.9794 19.0006 31.9794C18.8157 31.9794 18.6398 31.8996 18.518 31.7606C18.2571 31.4491 17.9512 31.0804 17.6111 30.6637C16.5883 29.4103 15.0448 27.459 13.5007 25.2803C11.9829 23.1848 10.6164 20.9837 9.41194 18.6936C8.20863 16.3344 7.60063 14.4193 7.60063 13.0018C7.60026 8.41444 10.3437 4.27168 14.5673 2.48152C17.4053 1.29149 20.6024 1.29149 23.4404 2.48152C23.6488 2.56984 23.8884 2.54037 24.0692 2.40403C24.2499 2.26777 24.3441 2.04541 24.3165 1.82075C24.2888 1.59608 24.1434 1.40326 23.935 1.31494C17.4855 -1.40533 10.0519 1.61642 7.32958 8.06502C6.6694 9.62703 6.33082 11.3061 6.33401 13.0018C6.33401 14.6206 6.99018 16.7291 8.28344 19.2719C9.51563 21.6152 10.9138 23.8676 12.467 26.0119Z" fill="#EE5F22"/>
<path d="M19.0001 7.28469C19.3499 7.28469 19.6334 7.00117 19.6334 6.65138C19.6334 6.30158 19.3499 6.01807 19.0001 6.01807C15.9787 6.01799 13.3779 8.15238 12.7884 11.1158C12.1988 14.0792 13.7848 17.0463 16.5763 18.2027C19.3677 19.359 22.5873 18.3824 24.266 15.8701C25.9446 13.3579 25.6149 10.0096 23.4784 7.8731C23.3194 7.70848 23.0839 7.64242 22.8625 7.70039C22.6411 7.75835 22.4682 7.93128 22.4102 8.15268C22.3522 8.37415 22.4183 8.60957 22.5829 8.76862C24.2922 10.4778 24.556 13.1563 23.2132 15.1662C21.8703 17.176 19.2947 17.9574 17.0615 17.0325C14.8283 16.1075 13.5595 13.7339 14.0309 11.3631C14.5024 8.99232 16.583 7.28476 19.0001 7.28469Z" fill="#EE5F22"/>
<path d="M37.7616 34.8797L33.8666 27.913C33.5144 27.294 32.8554 26.9136 32.1433 26.918H27.6295C27.2797 26.918 26.9962 27.2015 26.9962 27.5513C26.9962 27.9011 27.2797 28.1846 27.6295 28.1846H32.1433C32.3968 28.1797 32.6333 28.3119 32.762 28.5304L36.6558 35.4971C36.7619 35.6784 36.7596 35.9032 36.6501 36.0824C36.5207 36.2961 36.2868 36.4241 36.037 36.418H1.96359C1.71406 36.424 1.48042 36.2959 1.35113 36.0824C1.24159 35.9032 1.23943 35.6784 1.34542 35.4971L5.23917 28.5304C5.36764 28.312 5.60396 28.1798 5.85727 28.1846H10.371C10.7208 28.1846 11.0044 27.9011 11.0044 27.5513C11.0044 27.2015 10.7208 26.918 10.371 26.918H5.85734C5.14484 26.9133 4.48533 27.2938 4.13279 27.913L0.238366 34.8797C-0.0863421 35.4533 -0.0788459 36.1569 0.258034 36.7234C0.61295 37.3266 1.26378 37.6935 1.96359 37.6848H36.037C36.7366 37.6933 37.3872 37.3265 37.742 36.7234C38.0789 36.1568 38.0864 35.4533 37.7616 34.8797Z" fill="#EE5F22"/>
<path d="M31.0336 30.085H28.5003C28.3752 30.0852 28.253 30.1221 28.1488 30.1914L26.2488 31.4581C25.9578 31.6522 25.8792 32.0455 26.0733 32.3366C26.2675 32.6276 26.6608 32.7061 26.9518 32.512L28.6903 31.3517H31.0336C31.3834 31.3517 31.6669 31.0681 31.6669 30.7184C31.6669 30.3685 31.3834 30.085 31.0336 30.085Z" fill="#EE5F22"/>
<path d="M27.2344 34.5183C27.2344 34.8681 27.5179 35.1516 27.8677 35.1516H32.9344C33.2842 35.1516 33.5677 34.8681 33.5677 34.5183C33.5677 34.1685 33.2842 33.885 32.9344 33.885H27.8677C27.5179 33.885 27.2344 34.1685 27.2344 34.5183Z" fill="#EE5F22"/>
<path d="M11.4006 32.6181C11.6798 32.6185 11.9263 32.4359 12.0074 32.1687C12.0886 31.9015 11.9851 31.6127 11.7528 31.4578L9.85278 30.1911C9.74843 30.1218 9.6259 30.0848 9.50062 30.0847H6.9673C6.6175 30.0847 6.33398 30.3683 6.33398 30.718C6.33398 31.0678 6.61758 31.3513 6.9673 31.3513H9.31061L11.0511 32.5116C11.1546 32.5808 11.2762 32.6178 11.4006 32.6181Z" fill="#EE5F22"/>
<path d="M5.0669 33.885C4.71711 33.885 4.43359 34.1685 4.43359 34.5183C4.43359 34.8681 4.71711 35.1516 5.0669 35.1516H10.1336C10.4834 35.1516 10.7669 34.8681 10.7669 34.5183C10.7669 34.1685 10.4834 33.885 10.1336 33.885H5.0669Z" fill="#EE5F22"/>
</svg>
