<svg width="68" height="68" viewBox="0 0 68 68" fill="none" xmlns="http://www.w3.org/2000/svg">
<g clip-path="url(#clip0)">
<path d="M62.9027 12.6605C62.6087 12.6606 62.3156 12.6907 62.0277 12.7504C60.2382 9.51164 56.162 8.33692 52.9233 10.1264C51.8191 10.7366 50.9095 11.6461 50.2994 12.7504C50.0116 12.6907 49.7184 12.6606 49.4244 12.6605C46.9431 12.6605 44.9316 14.672 44.9316 17.1533C44.9349 17.6642 45.0264 18.1708 45.2023 18.6505C45.3608 19.0995 45.7853 19.3997 46.2615 19.3997H66.0656C66.5418 19.3997 66.9663 19.0995 67.1248 18.6505C67.3007 18.1708 67.3922 17.6642 67.3955 17.1533C67.3955 14.672 65.384 12.6605 62.9027 12.6605ZM47.178 17.1533C47.185 15.9127 48.1965 14.9126 49.4372 14.9197C49.7726 14.9216 50.1032 14.9986 50.405 15.145C50.9621 15.4178 51.6348 15.1874 51.9076 14.6304C51.9259 14.5932 51.942 14.5551 51.9561 14.516C52.7753 12.1923 55.3233 10.9726 57.647 11.792C58.9204 12.241 59.922 13.2426 60.371 14.516C60.5808 15.0998 61.224 15.4031 61.8077 15.1934C61.8468 15.1794 61.885 15.1633 61.9222 15.145C63.0383 14.6035 64.3822 15.0693 64.9238 16.1855C65.0702 16.4872 65.1471 16.8179 65.1491 17.1533H47.178Z" fill="#047CCD"/>
<path d="M12.359 7.04459C11.8215 7.04431 11.2868 7.12266 10.772 7.2771C7.80956 5.04138 3.59562 5.63064 1.35991 8.59305C0.475817 9.76454 -0.000416548 11.1931 0.00393582 12.6606C0.00393582 13.2808 0.506845 13.7837 1.12713 13.7837H16.8518C17.4721 13.7837 17.975 13.2808 17.975 12.6606C17.9712 9.56054 15.4591 7.04839 12.359 7.04459ZM2.39296 11.5374C2.90725 9.55507 4.69523 8.17017 6.74309 8.16779C7.87386 8.17144 8.96125 8.60372 9.78581 9.37746C10.1142 9.68213 10.5923 9.76244 11.0022 9.58188C12.695 8.82696 14.6793 9.58722 15.4343 11.28C15.472 11.3644 15.5061 11.4502 15.5366 11.5374H2.39296Z" fill="#047CCD"/>
<path d="M10.114 19.4001C7.01245 19.4001 4.49805 21.9146 4.49805 25.0161C4.49805 25.6364 5.00096 26.1393 5.62124 26.1393H14.6068C15.2271 26.1393 15.73 25.6364 15.73 25.0161C15.73 21.9146 13.2156 19.4001 10.114 19.4001ZM6.9365 23.8929C7.5558 22.1381 9.48053 21.2175 11.2354 21.8368C12.1964 22.176 12.9523 22.9319 13.2915 23.8929H6.9365Z" fill="#047CCD"/>
<path d="M67.8741 66.0578L50.4231 32.3621C50.23 31.9894 49.8453 31.7555 49.4257 31.7555H44.4836L34.8242 13.5059V8.97832L44.1647 5.86484C44.7539 5.67109 45.0747 5.03634 44.881 4.44709C44.7695 4.10802 44.5037 3.84225 44.1647 3.73077L34.0559 0.361196C33.4674 0.165199 32.8314 0.483343 32.6354 1.0719C32.5971 1.18716 32.5775 1.30791 32.5778 1.42935V13.5295L19.5162 40.7411H13.4005C12.9722 40.7391 12.5801 40.9809 12.3896 41.3644L0.117593 66.0747C-0.158431 66.6302 0.0680327 67.3043 0.623591 67.5803C0.780417 67.6582 0.953388 67.6984 1.12847 67.6977H17.9763V65.4513H2.94017L9.10312 53.0423L12.5491 58.2089L14.4181 56.9622L10.2555 50.7184L14.0968 42.9874H18.4054L15.8479 48.1013L17.8584 49.1055L21.228 42.3663L21.2381 42.3517L27.2247 29.8843L29.3722 33.4628L31.2974 32.3059L28.3894 27.4582L33.7538 16.2836L41.9441 31.7555H35.9474C35.5196 31.7531 35.1277 31.9941 34.9365 32.3767L31.8837 38.4947H29.2082V40.7411H38.6812L41.724 45.8123L43.6491 44.6554L40.2795 39.0394C40.0765 38.7015 39.7112 38.4948 39.317 38.4947H34.3951L36.6415 34.0019H48.7428L52.6672 41.5801L52.5549 41.5206L48.4362 49.1953L50.4152 50.2579L53.8477 43.8557L65.0302 65.4513H56.1648V67.6977H66.8767C67.497 67.6977 67.9999 67.1949 68 66.5746C67.9999 66.3948 67.9568 66.2176 67.8741 66.0578ZM34.8242 2.98722L40.2582 4.79893L34.8242 6.61064V2.98722Z" fill="#FAC415"/>
<path d="M53.7836 66.0415L45.9212 51.44C45.7252 51.076 45.3452 50.8491 44.9317 50.8492H35.9462C35.5519 50.8494 35.1866 51.0561 34.9836 51.394L31.9409 56.4652H25.8374C25.4117 56.4651 25.0224 56.7056 24.8322 57.0863L20.3394 66.0719C20.0621 66.6267 20.2872 67.3013 20.842 67.5786C20.9982 67.6565 21.1701 67.6971 21.3447 67.6971H52.794C53.1891 67.697 53.555 67.4892 53.7577 67.1501C53.9608 66.8109 53.9706 66.3899 53.7836 66.0415ZM23.162 65.4507L26.5316 58.7116H32.5766C32.9708 58.7114 33.3361 58.5048 33.5392 58.1668L36.5819 53.0956H44.2578L46.0729 56.4652H42.6853C42.3318 56.4652 41.9989 56.6317 41.7868 56.9145L38.4172 61.4072L40.2143 62.7551L43.2469 58.7116H47.2904L50.9194 65.4507H23.162Z" fill="#FAC415"/>
</g>
<defs>
<clipPath id="clip0">
<rect width="68" height="68" fill="white"/>
</clipPath>
</defs>
</svg>
