<svg width="38" height="38" viewBox="0 0 38 38" fill="none" xmlns="http://www.w3.org/2000/svg">
<path d="M36.7516 27.0167L31.3861 21.6512C30.5853 20.8504 29.5206 20.4094 28.3881 20.4094C27.2555 20.4094 26.1909 20.8504 25.3901 21.6512L23.5191 23.5222C23.519 23.5223 23.5189 23.5224 23.5188 23.5224C23.5188 23.5225 23.5187 23.5226 23.5186 23.5226L22.7712 24.27L13.7165 15.2153L16.3354 12.5965C17.9884 10.9434 17.9884 8.25362 16.3354 6.60051L10.9744 1.23967C9.32141 -0.413222 6.63164 -0.413222 4.97853 1.23967L3.56448 2.65365C-1.18816 7.40636 -1.18816 15.1395 3.56448 19.8923L8.77837 25.1061C9.06819 25.3959 9.53813 25.3959 9.82802 25.1061C10.1178 24.8163 10.1178 24.3464 9.82802 24.0565L4.61413 18.8426C0.772951 15.0015 0.466955 8.94354 3.69577 4.74887L9.33188 10.3851C9.47682 10.5299 9.66675 10.6024 9.85667 10.6024C10.0466 10.6024 10.2366 10.5299 10.3815 10.3851C10.6713 10.0952 10.6713 9.6253 10.3815 9.3354L4.68174 3.63561L6.02811 2.28924C7.10247 1.21502 8.85051 1.21488 9.92487 2.28924L15.2857 7.65008C16.3601 8.72445 16.3601 10.4725 15.2857 11.5468L12.142 14.6905C12.0029 14.8297 11.9246 15.0184 11.9246 15.2152C11.9246 15.4121 12.0029 15.6008 12.142 15.74L22.2464 25.8444C22.5363 26.1343 23.0062 26.1342 23.296 25.8444L24.0436 25.0968L33.2428 34.296C31.3806 35.7334 29.1094 36.5126 26.7183 36.5126C23.8588 36.5126 21.1705 35.3991 19.1486 33.3771L13.8605 28.089C13.5707 27.7993 13.1007 27.7993 12.8109 28.089C12.5211 28.3788 12.5211 28.8488 12.8109 29.1387L18.099 34.4268C20.4013 36.729 23.4624 37.997 26.7183 37.997C29.9742 37.997 33.0353 36.729 35.3376 34.4268L36.7516 33.0127C37.5524 32.212 37.9934 31.1473 37.9934 30.0147C37.9934 28.8822 37.5524 27.8176 36.7516 27.0167ZM35.702 31.9631L34.3556 33.3095L25.0933 24.0472L26.4397 22.7008C26.9601 22.1803 27.652 21.8937 28.3881 21.8937C29.1241 21.8937 29.816 22.1803 30.3364 22.7008L35.7019 28.0664C36.2224 28.5868 36.509 29.2788 36.509 30.0147C36.509 30.7507 36.2225 31.4427 35.702 31.9631Z" fill="#467BC9"/>
</svg>
