<svg width="40" height="40" viewBox="0 0 40 40" fill="none" xmlns="http://www.w3.org/2000/svg">
<g clip-path="url(#clip0)">
<path d="M39.6049 0.10268C39.3613 -0.0363826 39.0616 -0.0340388 38.8202 0.108774L24.5034 8.57471C24.132 8.79432 24.009 9.27338 24.2286 9.64479C24.4481 10.0161 24.9272 10.1392 25.2987 9.91963L35.5707 3.84549L16.4374 23.6981L6.92117 20.7867L19.3403 13.4429C19.7117 13.2232 19.8348 12.7442 19.6152 12.3728C19.3956 12.0014 18.9165 11.8782 18.5451 12.0979L4.60141 20.3432C4.335 20.5007 4.18664 20.8007 4.22328 21.1081C4.25992 21.4155 4.47453 21.6722 4.77047 21.7628L16.1352 25.2396L21.1491 34.3657C21.1543 34.3751 21.1597 34.3831 21.1652 34.3902C21.2489 34.5297 21.3743 34.6437 21.5307 34.7095C21.6286 34.7507 21.7315 34.7707 21.8337 34.7707C22.0339 34.7707 22.231 34.6937 22.3799 34.5482L28.145 28.9138L38.9892 32.2314C39.0642 32.2543 39.1412 32.2657 39.2178 32.2657C39.3831 32.2657 39.5463 32.2132 39.6824 32.1124C39.8816 31.9651 39.9991 31.7321 39.9991 31.4844V0.781274C39.9991 0.500727 39.8486 0.241664 39.6049 0.10268ZM21.1917 25.7211C21.1012 25.8518 21.0527 26.007 21.0527 26.166V30.9449L17.629 24.7133L32.7791 8.99378L21.1917 25.7211ZM22.6152 32.1335V27.2221L26.4425 28.393L22.6152 32.1335ZM38.4366 30.4284L23.0851 25.7318L38.4366 3.57065V30.4284Z" fill="#467BC9"/>
<path d="M12.8446 27.1546C12.5395 26.8495 12.0449 26.8495 11.7397 27.1546L4.44658 34.4477C4.1415 34.7528 4.1415 35.2475 4.44658 35.5526C4.59924 35.7051 4.79916 35.7814 4.99908 35.7814C5.199 35.7814 5.39893 35.7051 5.5515 35.5526L12.8446 28.2594C13.1497 27.9544 13.1497 27.4597 12.8446 27.1546Z" fill="#467BC9"/>
<path d="M3.13053 36.8693C2.82537 36.5644 2.33084 36.5644 2.02568 36.8694L0.228809 38.6663C-0.0762695 38.9713 -0.0762695 39.466 0.228809 39.7712C0.381387 39.9237 0.581309 39.9999 0.78123 39.9999C0.981152 39.9999 1.18107 39.9236 1.33365 39.7711L3.13053 37.9742C3.43561 37.6691 3.43561 37.1745 3.13053 36.8693Z" fill="#467BC9"/>
<path d="M11.1441 38.6203C10.9988 38.475 10.7973 38.3914 10.5918 38.3914C10.3855 38.3914 10.1848 38.475 10.0395 38.6203C9.89414 38.7656 9.81055 38.9664 9.81055 39.1726C9.81055 39.3781 9.89406 39.5796 10.0395 39.725C10.1848 39.8703 10.3863 39.9539 10.5918 39.9539C10.7973 39.9539 10.9988 39.8703 11.1441 39.725C11.2894 39.5796 11.373 39.3781 11.373 39.1726C11.373 38.9664 11.2895 38.7656 11.1441 38.6203Z" fill="#467BC9"/>
<path d="M16.9564 32.8074C16.6515 32.5023 16.1569 32.5023 15.8515 32.8074L11.9886 36.6703C11.6835 36.9754 11.6835 37.4701 11.9886 37.7752C12.1412 37.9277 12.3411 38.004 12.541 38.004C12.7409 38.004 12.9408 37.9277 13.0934 37.7752L16.9564 33.9123C17.2615 33.6072 17.2615 33.1125 16.9564 32.8074Z" fill="#467BC9"/>
<path d="M30.2901 32.511C29.9849 32.206 29.4904 32.206 29.1853 32.511L25.3118 36.3844C25.0067 36.6895 25.0067 37.1842 25.3118 37.4893C25.4644 37.6418 25.6643 37.7182 25.8642 37.7182C26.0642 37.7182 26.2641 37.6418 26.4167 37.4893L30.2901 33.6159C30.5952 33.3108 30.5952 32.8161 30.2901 32.511Z" fill="#467BC9"/>
<path d="M22.148 10.6493C22.0027 10.504 21.8012 10.4204 21.5957 10.4204C21.3902 10.4204 21.1887 10.504 21.0434 10.6493C20.8981 10.7946 20.8145 10.9962 20.8145 11.2024C20.8145 11.4079 20.898 11.6087 21.0434 11.754C21.1887 11.9001 21.3902 11.9829 21.5957 11.9829C21.8012 11.9829 22.0027 11.9001 22.148 11.754C22.2933 11.6087 22.377 11.4079 22.377 11.2024C22.377 10.9962 22.2934 10.7946 22.148 10.6493Z" fill="#467BC9"/>
</g>
<defs>
<clipPath id="clip0">
<rect width="40" height="40" fill="white"/>
</clipPath>
</defs>
</svg>
