<svg width="41" height="32" viewBox="0 0 41 32" fill="none" xmlns="http://www.w3.org/2000/svg">
<path d="M22.1445 21.9053C22.1445 19.5778 22.4668 17.3219 23.1113 15.1377C23.7917 12.9176 24.848 10.8945 26.2803 9.06836C27.7126 7.24219 29.5745 5.57715 31.8662 4.07324C34.1937 2.56934 36.9688 1.33398 40.1914 0.367188V4.98633C36.6465 6.13216 34.0146 7.52865 32.2959 9.17578C30.613 10.8229 29.7715 12.7207 29.7715 14.8691C29.7715 15.5853 29.9684 16.194 30.3623 16.6953C30.792 17.1608 31.2933 17.5726 31.8662 17.9307C32.1527 18.1097 32.457 18.3066 32.7793 18.5215C33.1016 18.7005 33.4417 18.8796 33.7998 19.0586C34.4801 19.4167 35.1068 19.8464 35.6797 20.3477C36.2884 20.849 36.7897 21.4577 37.1836 22.1738C37.3626 22.5319 37.5059 22.9437 37.6133 23.4092C37.7207 23.8747 37.7744 24.3939 37.7744 24.9668C37.7744 27.0794 37.0941 28.6908 35.7334 29.8008C34.3727 30.9108 32.6719 31.4658 30.6309 31.4658C29.5208 31.4658 28.4466 31.251 27.4082 30.8213C26.3698 30.3916 25.4746 29.7829 24.7227 28.9951C23.9349 28.2074 23.3083 27.2227 22.8428 26.041C22.3773 24.8236 22.1445 23.445 22.1445 21.9053ZM0.176758 21.9053C0.176758 19.5778 0.499023 17.3219 1.14355 15.1377C1.82389 12.9176 2.88021 10.8945 4.3125 9.06836C5.74479 7.24219 7.60677 5.57715 9.89844 4.07324C12.2259 2.56934 15.001 1.33398 18.2236 0.367188V4.98633C14.6071 6.13216 11.9574 7.52865 10.2744 9.17578C8.59147 10.8229 7.75 12.7207 7.75 14.8691C7.75 15.5853 7.94694 16.194 8.34082 16.6953C8.7347 17.1608 9.236 17.5726 9.84473 17.9307C10.1312 18.1097 10.4355 18.3066 10.7578 18.5215C11.0801 18.7005 11.4202 18.8796 11.7783 19.0586C12.4587 19.4167 13.1032 19.8464 13.7119 20.3477C14.3206 20.849 14.8219 21.4577 15.2158 22.1738C15.3949 22.5319 15.5381 22.9437 15.6455 23.4092C15.7529 23.8747 15.8066 24.3939 15.8066 24.9668C15.8066 27.0794 15.1084 28.6908 13.7119 29.8008C12.3512 30.9108 10.6504 31.4658 8.60938 31.4658C7.49935 31.4658 6.42513 31.251 5.38672 30.8213C4.38411 30.3916 3.48893 29.7829 2.70117 28.9951C1.91341 28.2074 1.28678 27.2227 0.821289 26.041C0.391602 24.8236 0.176758 23.445 0.176758 21.9053Z" fill="#FAC415"/>
</svg>
