<svg width="71" height="55" viewBox="0 0 71 55" fill="none" xmlns="http://www.w3.org/2000/svg">
<path d="M70.3129 30.1871L55.7652 15.6395C55.4396 15.3117 55.0521 15.0519 54.6252 14.875C54.1983 14.6982 53.7406 14.6079 53.2785 14.6094H33.1562V16.9531H39.0156V34.5313H41.3594V16.9531H53.2785C53.4326 16.953 53.5852 16.9833 53.7276 17.0422C53.8699 17.1011 53.9993 17.1875 54.1082 17.2965L56.1086 19.2969H50.7344C50.1128 19.2969 49.5166 19.5438 49.0771 19.9834C48.6376 20.4229 48.3906 21.019 48.3906 21.6406V32.1875C48.3906 32.8091 48.6376 33.4053 49.0771 33.8448C49.5166 34.2843 50.1128 34.5313 50.7344 34.5313H68.3125V43.9063C68.3125 44.2171 68.189 44.5151 67.9693 44.7349C67.7495 44.9547 67.4514 45.0781 67.1406 45.0781H64.7031C64.4229 43.1271 63.4487 41.3425 61.9592 40.0517C60.4697 38.7608 58.5648 38.0502 56.5938 38.0502C54.6227 38.0502 52.7178 38.7608 51.2283 40.0517C49.7388 41.3425 48.7646 43.1271 48.4844 45.0781H31.8906C31.6104 43.1271 30.6362 41.3425 29.1467 40.0517C27.6572 38.7608 25.7523 38.0502 23.7812 38.0502C21.8102 38.0502 19.9053 38.7608 18.4158 40.0517C16.9263 41.3425 15.9521 43.1271 15.6719 45.0781H13.2344C12.9236 45.0781 12.6255 44.9547 12.4057 44.7349C12.186 44.5151 12.0625 44.2171 12.0625 43.9063V33.3594H9.71875V43.9063C9.71875 44.8387 10.0891 45.7329 10.7485 46.3922C11.4078 47.0515 12.302 47.4219 13.2344 47.4219H15.6719C15.9277 49.2038 16.7643 50.8515 18.052 52.1094H0.34375V54.4531H56.5938C58.5643 54.4494 60.4677 53.737 61.9565 52.4461C63.4453 51.1553 64.4202 49.372 64.7031 47.4219H67.1406C68.073 47.4219 68.9672 47.0515 69.6265 46.3922C70.2859 45.7329 70.6562 44.8387 70.6562 43.9063V31.0156C70.6562 30.7049 70.5327 30.4068 70.3129 30.1871ZM17.9219 46.25C17.9219 45.0911 18.2655 43.9583 18.9094 42.9947C19.5532 42.0312 20.4683 41.2801 21.539 40.8367C22.6096 40.3932 23.7878 40.2771 24.9244 40.5032C26.061 40.7293 27.105 41.2874 27.9245 42.1068C28.7439 42.9263 29.302 43.9703 29.528 45.1069C29.7541 46.2435 29.6381 47.4216 29.1946 48.4923C28.7511 49.563 28.0001 50.4781 27.0365 51.1219C26.073 51.7657 24.9401 52.1094 23.7812 52.1094C22.2278 52.1075 20.7385 51.4896 19.6401 50.3912C18.5417 49.2927 17.9237 47.8034 17.9219 46.25ZM29.5105 52.1094C30.7982 50.8515 31.6348 49.2038 31.8906 47.4219H48.4844C48.7402 49.2038 49.5768 50.8515 50.8645 52.1094H29.5105ZM56.5938 52.1094C55.4349 52.1094 54.302 51.7657 53.3385 51.1219C52.3749 50.4781 51.6239 49.563 51.1804 48.4923C50.7369 47.4216 50.6209 46.2435 50.847 45.1069C51.073 43.9703 51.6311 42.9263 52.4505 42.1068C53.27 41.2874 54.314 40.7293 55.4506 40.5032C56.5872 40.2771 57.7654 40.3932 58.836 40.8367C59.9067 41.2801 60.8218 42.0312 61.4656 42.9947C62.1095 43.9583 62.4531 45.0911 62.4531 46.25C62.4513 47.8034 61.8333 49.2927 60.7349 50.3912C59.6365 51.4896 58.1472 52.1075 56.5938 52.1094ZM50.7344 32.1875V21.6406H58.4523L68.3125 31.5008V32.1875H50.7344Z" fill="#467BC9"/>
<path d="M24.9531 45.0781H22.6094V47.4219H24.9531V45.0781Z" fill="#467BC9"/>
<path d="M57.7656 45.0781H55.4219V47.4219H57.7656V45.0781Z" fill="#467BC9"/>
<path d="M6.20312 41.5625H0.34375V43.9062H6.20312V41.5625Z" fill="#467BC9"/>
<path d="M6.20312 36.875H2.6875V39.2188H6.20312V36.875Z" fill="#467BC9"/>
<path d="M6.20312 32.1875H3.85938V34.5312H6.20312V32.1875Z" fill="#467BC9"/>
<path d="M15.5781 31.0156C18.5912 31.0156 21.5366 30.1221 24.0419 28.4482C26.5472 26.7742 28.4998 24.3949 29.6528 21.6112C30.8059 18.8275 31.1076 15.7643 30.5198 12.8092C29.9319 9.85399 28.481 7.13949 26.3505 5.00892C24.2199 2.87836 21.5054 1.42743 18.5502 0.839606C15.595 0.251785 12.5319 0.553476 9.74818 1.70653C6.96446 2.85958 4.58518 4.81221 2.9112 7.31749C1.23723 9.82277 0.34375 12.7682 0.34375 15.7813C0.348402 19.8202 1.95494 23.6924 4.81093 26.5484C7.66692 29.4044 11.5391 31.011 15.5781 31.0156ZM15.5781 2.89063C18.1276 2.89063 20.6199 3.64665 22.7398 5.06309C24.8596 6.47953 26.5118 8.49277 27.4875 10.8482C28.4632 13.2037 28.7184 15.7956 28.2211 18.2961C27.7237 20.7966 26.496 23.0935 24.6932 24.8963C22.8904 26.6991 20.5935 27.9268 18.093 28.4242C15.5924 28.9216 13.0005 28.6663 10.6451 27.6906C8.28964 26.715 6.2764 25.0627 4.85996 22.9429C3.44352 20.823 2.6875 18.3308 2.6875 15.7813C2.69153 12.3637 4.05094 9.08725 6.46753 6.67066C8.88412 4.25407 12.1606 2.89466 15.5781 2.89063Z" fill="#467BC9"/>
<path d="M15.5781 26.3281C15.8889 26.3281 16.1869 26.2046 16.4066 25.9848C17.1613 25.2301 23.7812 18.4648 23.7812 13.4375C23.7812 11.2619 22.917 9.1754 21.3786 7.63702C19.8402 6.09863 17.7537 5.23438 15.5781 5.23438C13.4025 5.23438 11.316 6.09863 9.77764 7.63702C8.23926 9.1754 7.375 11.2619 7.375 13.4375C7.375 18.4648 13.9949 25.2301 14.7496 25.9848C14.9693 26.2046 15.2673 26.3281 15.5781 26.3281ZM15.5781 7.57812C17.1316 7.57999 18.6208 8.19791 19.7193 9.29635C20.8177 10.3948 21.4356 11.8841 21.4375 13.4375C21.4375 16.4445 17.7496 21.091 15.5781 23.4582C13.4066 21.091 9.71875 16.4445 9.71875 13.4375C9.72061 11.8841 10.3385 10.3948 11.437 9.29635C12.5354 8.19791 14.0247 7.57999 15.5781 7.57812Z" fill="#467BC9"/>
<path d="M19.0937 13.4375C19.0937 12.7422 18.8876 12.0625 18.5013 11.4843C18.115 10.9062 17.5659 10.4556 16.9235 10.1895C16.2811 9.9234 15.5742 9.85378 14.8923 9.98943C14.2103 10.1251 13.5839 10.4599 13.0922 10.9516C12.6005 11.4432 12.2657 12.0697 12.1301 12.7516C11.9944 13.4336 12.064 14.1405 12.3301 14.7829C12.5962 15.4253 13.0468 15.9743 13.6249 16.3606C14.2031 16.7469 14.8828 16.9531 15.5781 16.9531C16.5105 16.9531 17.4047 16.5827 18.064 15.9234C18.7234 15.2641 19.0937 14.3699 19.0937 13.4375ZM14.4063 13.4375C14.4063 13.2057 14.475 12.9792 14.6037 12.7864C14.7325 12.5937 14.9155 12.4435 15.1297 12.3548C15.3438 12.2661 15.5794 12.2429 15.8067 12.2881C16.0341 12.3334 16.2429 12.445 16.4068 12.6089C16.5707 12.7727 16.6823 12.9816 16.7275 13.2089C16.7727 13.4362 16.7495 13.6718 16.6608 13.886C16.5721 14.1001 16.4219 14.2831 16.2292 14.4119C16.0365 14.5406 15.8099 14.6094 15.5781 14.6094C15.2673 14.6094 14.9693 14.4859 14.7495 14.2661C14.5297 14.0464 14.4063 13.7483 14.4063 13.4375Z" fill="#467BC9"/>
<path d="M49.5625 36.875H44.875V39.2188H49.5625V36.875Z" fill="#467BC9"/>
</svg>
