<svg width="75" height="75" viewBox="0 0 75 75" fill="none" xmlns="http://www.w3.org/2000/svg">
<g clip-path="url(#clip0)">
<path d="M50.4222 40.5404L44.0381 37.703C43.5871 37.5026 43.2959 37.0542 43.2959 36.5608V34.8077C45.4404 33.0989 46.8189 30.4676 46.8189 27.5189V25.0511C47.5253 24.6607 47.9931 23.9063 47.9931 23.0614V22.8219C47.9931 17.6838 43.8128 13.5035 38.6747 13.5035H36.3263C31.1882 13.5035 27.008 17.6838 27.008 22.8219V24.995C27.008 25.7376 27.3276 26.4104 27.8847 26.841C27.9792 26.9139 28.0786 26.9781 28.1822 27.0336V27.5188C28.1822 30.4675 29.5605 33.0988 31.7049 34.8074V36.5607C31.7049 37.054 31.4135 37.5024 30.9626 37.7028L24.5785 40.5402C22.4877 41.4694 21.1367 43.5483 21.1367 45.8362V60.3974C21.1367 61.0041 21.6286 61.496 22.2354 61.496C22.8421 61.496 23.334 61.0041 23.334 60.3974V45.8364C23.334 45.7091 23.3431 45.5832 23.3563 45.4584L26.298 48.4001C26.7557 48.8581 27.008 49.4667 27.008 50.1143V60.3975C27.008 61.0043 27.4999 61.4962 28.1066 61.4962C28.7133 61.4962 29.2052 61.0043 29.2052 60.3975V50.1143C29.2052 48.8799 28.7246 47.7194 27.8517 46.8465L24.3447 43.3394C24.6607 43.0116 25.0398 42.7398 25.4711 42.5481L31.7475 39.7586L36.402 44.4131V60.3974C36.402 61.0041 36.8939 61.496 37.5007 61.496C38.1074 61.496 38.5993 61.0041 38.5993 60.3974V44.4133L43.2539 39.7587L49.5301 42.5481C49.9614 42.7398 50.3405 43.0116 50.6565 43.3395L47.1495 46.8465C46.2766 47.7194 45.7959 48.8799 45.7959 50.1143V60.3975C45.7959 61.0043 46.2878 61.4962 46.8946 61.4962C47.5013 61.4962 47.9932 61.0043 47.9932 60.3975V50.1143C47.9932 49.4668 48.2453 48.8581 48.7032 48.4001L51.6448 45.4586C51.658 45.5834 51.6671 45.7089 51.6671 45.8362V60.3974C51.6671 61.0041 52.159 61.496 52.7657 61.496C53.3724 61.496 53.8643 61.0041 53.8643 60.3974V45.8364C53.8639 43.5484 52.513 41.4695 50.4222 40.5404ZM37.5002 42.4045L33.4161 38.3202C33.7266 37.7977 33.902 37.1932 33.902 36.5608V36.1137C35.0098 36.5793 36.2255 36.8372 37.5004 36.8372C38.7752 36.8372 39.9908 36.5794 41.0985 36.1139V36.5608C41.0985 37.1933 41.2738 37.7977 41.5845 38.3204L37.5002 42.4045ZM37.5004 34.6398C33.5739 34.64 30.3793 31.4454 30.3793 27.5189V27.0248C31.0649 26.7531 31.734 26.3207 32.3746 25.7296C32.8203 25.3181 32.8483 24.623 32.4367 24.1771C32.0252 23.7314 31.3303 23.7034 30.8842 24.1149C30.3348 24.6222 29.7858 24.9499 29.2528 25.089C29.24 25.0924 29.2304 25.0938 29.2237 25.0944C29.2158 25.0791 29.2051 25.0468 29.2051 24.9951V22.822C29.2051 18.8955 32.3996 15.701 36.3262 15.701H38.6746C42.6013 15.701 45.7957 18.8955 45.7957 22.822V23.0615C45.7957 23.0971 45.7743 23.128 45.7461 23.1336C39.1674 24.4329 35.8677 21.9841 34.7544 20.8708C34.3253 20.4418 33.6297 20.4418 33.2008 20.8708C32.7717 21.2999 32.7717 21.9955 33.2008 22.4245C36.6124 25.8361 41.5907 25.8976 44.6214 25.5334V27.5188C44.6214 31.4453 41.4269 34.6398 37.5004 34.6398Z" fill="#467BC9"/>
<path d="M19.8109 34.5646V32.2157C19.8109 29.3496 18.3214 26.8266 16.0771 25.3746C16.2157 24.93 16.2881 24.4644 16.2881 23.9961C16.2881 21.4478 14.215 19.3748 11.6668 19.3748C9.11852 19.3748 7.04547 21.448 7.04547 23.9961C7.04547 24.4702 7.11725 24.9314 7.25612 25.3749C5.01197 26.8267 3.52266 29.3498 3.52266 32.2157V34.5642C3.52266 37.3396 4.9191 39.7938 7.04533 41.2648V43.6808C7.04533 44.1573 6.78063 44.5856 6.3545 44.7988L2.55455 46.6987C0.97881 47.4868 0 49.0706 0 50.8323V60.3976C0 61.0044 0.491895 61.4963 1.09863 61.4963C1.70537 61.4963 2.19727 61.0044 2.19727 60.3976V51.3075L3.98702 53.0973C4.44478 53.5552 4.69703 54.1638 4.69703 54.8114V60.3976C4.69703 61.0044 5.18893 61.4963 5.79567 61.4963C6.4024 61.4963 6.8943 61.0044 6.8943 60.3976V54.8114C6.8943 53.577 6.41354 52.4166 5.54078 51.5437L3.04981 49.0527C3.0378 49.0407 3.02491 49.0303 3.0126 49.019C3.1689 48.881 3.34424 48.7609 3.53731 48.6642L7.33727 46.7643C7.53195 46.6669 7.71315 46.5519 7.88205 46.4242L10.5681 49.1104V60.3978C10.5681 61.0045 11.06 61.4964 11.6668 61.4964C12.2735 61.4964 12.7654 61.0045 12.7654 60.3978V49.1103L15.4516 46.424C15.6207 46.5519 15.8017 46.6669 15.9964 46.7642L17.0442 47.2881C17.202 47.3671 17.3696 47.4044 17.5348 47.4044C17.9378 47.4044 18.3258 47.1818 18.5183 46.797C18.7897 46.2542 18.5697 45.5943 18.027 45.323L16.9792 44.7991C16.5529 44.5859 16.2882 44.1576 16.2882 43.6812V41.2653C18.4144 39.7943 19.8109 37.3399 19.8109 34.5646ZM11.6668 21.572C13.0034 21.572 14.0908 22.6595 14.0908 23.9961C14.0908 24.1433 14.0776 24.2876 14.0524 24.4289C13.2974 24.1972 12.4966 24.0716 11.6668 24.0716C10.8381 24.0716 10.0383 24.1967 9.28449 24.4279C9.25915 24.2865 9.24274 24.143 9.24274 23.9961C9.24274 22.6594 10.3301 21.572 11.6668 21.572ZM11.6668 26.2691C14.9458 26.2691 17.6136 28.9368 17.6136 32.2159V32.614C13.0396 34.0144 10.3137 30.535 10.1972 30.3825C10.0061 30.1278 9.71384 29.9684 9.39626 29.9458C9.07868 29.9236 8.76667 30.0397 8.54152 30.2649C7.49284 31.3135 6.46569 31.8194 5.72389 32.0635C5.80519 28.8547 8.43883 26.2691 11.6668 26.2691ZM11.6668 47.1014L9.12805 44.5626C9.20217 44.2793 9.24274 43.984 9.24274 43.6809V42.3399C10.0087 42.5792 10.823 42.7083 11.6668 42.7083C12.5105 42.7083 13.3248 42.5792 14.0908 42.3399V43.6809C14.0908 43.984 14.1314 44.2795 14.2055 44.5626L11.6668 47.1014ZM11.6668 40.511C8.38771 40.511 5.71993 37.8432 5.71993 34.5642V34.3365C6.59606 34.1353 7.89508 33.6676 9.25021 32.5777C9.72966 33.0301 10.4149 33.5849 11.2875 34.0609C12.3197 34.6238 13.7451 35.1446 15.4862 35.1446C16.1479 35.1446 16.8558 35.0677 17.6042 34.891C17.4339 38.0187 14.8361 40.511 11.6668 40.511Z" fill="#467BC9"/>
<path d="M72.4466 44.3504L66.2982 41.2762C65.872 41.063 65.6073 40.6347 65.6073 40.1583V38.6014C67.0466 37.3236 67.9558 35.4615 67.9558 33.3902V32.1396C67.9811 32.1396 68.006 32.1404 68.0314 32.1404C68.6381 32.1404 69.13 31.6485 69.13 31.0417V28.6933C69.13 24.8501 66.0033 21.7234 62.1601 21.7234H59.8117C55.9685 21.7234 52.8418 24.8501 52.8418 28.6933V31.0417C52.8418 31.6485 53.3337 32.1404 53.9404 32.1404C53.9495 32.1404 53.9759 32.1401 54.016 32.1384V33.3902C54.016 35.4616 54.9254 37.3237 56.3646 38.6015V40.1585C56.3646 40.635 56.0999 41.0633 55.6736 41.2763C55.1309 41.5476 54.9109 42.2075 55.1823 42.7502C55.3748 43.1352 55.7628 43.3579 56.1658 43.3579C56.3309 43.3579 56.4985 43.3205 56.6563 43.2417C56.8509 43.1443 57.0321 43.0293 57.201 42.9016L59.8873 45.5878V60.3978C59.8873 61.0046 60.3792 61.4965 60.9859 61.4965C61.5926 61.4965 62.0845 61.0046 62.0845 60.3978V45.5875L64.7706 42.9013C64.9397 43.0291 65.1207 43.1441 65.3154 43.2414L71.2649 46.2162L69.4603 48.0208C68.5876 48.8937 68.1068 50.0541 68.1068 51.2885V60.3975C68.1068 61.0043 68.5987 61.4962 69.2054 61.4962C69.8122 61.4962 70.3041 61.0043 70.3041 60.3975V51.2885C70.3041 50.6411 70.5562 50.0323 71.0141 49.5744L72.7234 47.865C72.7753 48.0638 72.8037 48.2711 72.8037 48.4838V60.3975C72.8037 61.0043 73.2956 61.4962 73.9023 61.4962C74.5091 61.4962 75.001 61.0043 75.001 60.3975V48.4838C75.0011 46.7222 74.0223 45.1384 72.4466 44.3504ZM55.0389 29.7171V28.6931H55.0391C55.0391 26.0615 57.1801 23.9205 59.8117 23.9205H62.1601C64.7917 23.9205 66.9327 26.0615 66.9327 28.6931V29.9135C62.1569 29.6558 59.2748 27.7974 59.2468 27.7791C59.0609 27.6551 58.8488 27.5945 58.6378 27.5945C58.3542 27.5945 58.0729 27.7041 57.8605 27.9163C56.8093 28.9675 55.7794 29.4735 55.0389 29.7171ZM60.9859 43.5788L58.4472 41.04C58.5213 40.7567 58.5619 40.4614 58.5619 40.1583V39.9244C59.3171 40.2055 60.1338 40.3599 60.9859 40.3599C61.838 40.3599 62.6547 40.2055 63.4099 39.9244V40.1583C63.4099 40.4614 63.4504 40.7567 63.5246 41.04L60.9859 43.5788ZM60.9859 38.1628C58.3543 38.1628 56.2133 36.0219 56.2133 33.3902V31.619C56.9828 31.3115 57.8793 30.8227 58.7916 30.0455C59.9453 30.6458 62.359 31.6833 65.7585 32.0261V33.3902C65.7585 36.0218 63.6175 38.1628 60.9859 38.1628Z" fill="#467BC9"/>
</g>
<defs>
<clipPath id="clip0">
<rect width="75" height="75" fill="white"/>
</clipPath>
</defs>
</svg>
